<?xml version="1.0" encoding="UTF-8" standalone="no"?><!DOCTYPE svg PUBLIC "-//W3C//DTD SVG 1.1//EN" "http://www.w3.org/Graphics/SVG/1.1/DTD/svg11.dtd"><svg width="100%" height="100%" viewBox="0 0 64 64" version="1.1" xmlns="http://www.w3.org/2000/svg" xmlns:xlink="http://www.w3.org/1999/xlink" xml:space="preserve" xmlns:serif="http://www.serif.com/" style="fill-rule:evenodd;clip-rule:evenodd;stroke-linejoin:round;stroke-miterlimit:2;"><g><path d="M5.981,32.071c-0.509,-0.508 -0.78,-1.206 -0.747,-1.924c0.033,-0.718 0.366,-1.389 0.918,-1.849c4.771,-3.976 16.309,-13.591 22.562,-18.802c0.762,-0.635 1.823,-0.772 2.722,-0.351c0.899,0.421 1.473,1.324 1.473,2.316c0,9.94 0,30.92 0,41.364c0,1.034 -0.623,1.967 -1.579,2.363c-0.956,0.396 -2.056,0.177 -2.787,-0.554c-6.368,-6.368 -17.943,-17.944 -22.562,-22.563Z"/><path d="M30.071,32.071c-0.508,-0.508 -0.779,-1.206 -0.746,-1.924c0.032,-0.718 0.366,-1.389 0.918,-1.849c4.771,-3.976 16.309,-13.591 22.562,-18.802c0.762,-0.635 1.823,-0.772 2.722,-0.351c0.899,0.421 1.473,1.324 1.473,2.316c-0,9.94 -0,30.92 -0,41.364c0,1.034 -0.623,1.967 -1.579,2.363c-0.956,0.396 -2.056,0.177 -2.787,-0.554c-6.368,-6.368 -17.944,-17.944 -22.563,-22.563Z"/></g></svg>